<svg version="1.1" xmlns="http://www.w3.org/2000/svg" viewBox="0 0 1632.5952043284758 1029.9371404541193" width="1632.5952043284758" height="1029.9371404541193">
  <!-- svg-source:excalidraw -->
  
  <defs>
    <style class="style-fonts">
      @font-face {
        font-family: "Virgil";
        src: url("https://file%2B.vscode-resource.vscode-cdn.net/c%3A/Users/perocha/.vscode-insiders/extensions/pomdtr.excalidraw-editor-3.5.1/public//dist/excalidraw-assets/Virgil.woff2");
      }
      @font-face {
        font-family: "Cascadia";
        src: url("https://file%2B.vscode-resource.vscode-cdn.net/c%3A/Users/perocha/.vscode-insiders/extensions/pomdtr.excalidraw-editor-3.5.1/public//dist/excalidraw-assets/Cascadia.woff2");
      }
    </style>
  </defs>
  <rect x="0" y="0" width="1632.5952043284758" height="1029.9371404541193" fill="#ffffff"></rect><g stroke-opacity="0.7" fill-opacity="0.7" transform="translate(10 43.58834739972576) rotate(0 702.26123046875 54.24995573103047)"><text x="0" y="0" font-family="Virgil, Segoe UI Emoji" font-size="86.79992916964875px" fill="#1e1e1e" text-anchor="start" style="white-space: pre;" direction="ltr" dominant-baseline="text-before-edge">Curso de herramientas Microsoft</text></g><g stroke-linecap="round" transform="translate(957.8282738301614 603.3393787994908) rotate(0 43.283574748601495 43.72078257434498)"><path d="M35.63 -0.09 C43.08 -1.84, 53.69 0.56, 61.03 3.6 C68.37 6.64, 75.5 11.71, 79.67 18.15 C83.84 24.58, 85.95 34.29, 86.04 42.21 C86.13 50.13, 84.08 59, 80.24 65.69 C76.4 72.37, 69.98 78.72, 62.99 82.32 C56 85.92, 46.15 88.15, 38.32 87.29 C30.49 86.42, 21.98 82.11, 16.01 77.13 C10.04 72.14, 5.02 64.93, 2.47 57.37 C-0.07 49.82, -1.23 39.43, 0.76 31.81 C2.76 24.19, 7.35 16.85, 14.46 11.65 C21.58 6.45, 37.29 2.32, 43.44 0.61 C49.6 -1.1, 51.52 0.65, 51.37 1.39 M57.03 2.15 C63.9 3.96, 72.31 9.96, 77.06 16.39 C81.82 22.83, 84.69 32.64, 85.56 40.76 C86.43 48.88, 85.64 58.12, 82.28 65.12 C78.92 72.11, 72.14 79.07, 65.38 82.72 C58.63 86.37, 49.88 87.75, 41.74 87.03 C33.6 86.32, 23.21 83.08, 16.56 78.45 C9.91 73.82, 4.2 66.54, 1.82 59.25 C-0.57 51.97, 0.44 42.17, 2.26 34.72 C4.08 27.28, 7.56 20.3, 12.75 14.58 C17.94 8.86, 25.93 2.52, 33.38 0.42 C40.83 -1.68, 53.52 1.52, 57.45 1.96 C61.38 2.4, 57.05 2.33, 56.94 3.06" stroke="none" stroke-width="0" fill="#0464b8"></path><path d="M30.12 2.34 C36.91 -0.6, 46.4 -0.32, 53.83 1.79 C61.27 3.91, 69.46 9.12, 74.74 15.05 C80.02 20.98, 84.12 29.58, 85.5 37.36 C86.88 45.15, 85.97 54.74, 83.01 61.76 C80.04 68.79, 74.11 75.18, 67.71 79.51 C61.31 83.84, 52.57 87.39, 44.63 87.75 C36.7 88.12, 26.76 85.9, 20.09 81.7 C13.42 77.5, 7.81 69.66, 4.61 62.58 C1.41 55.5, 0.09 47.08, 0.88 39.22 C1.66 31.37, 3.38 21.94, 9.32 15.45 C15.26 8.96, 30.81 2.83, 36.54 0.27 C42.27 -2.29, 43.47 -0.76, 43.7 0.08 M31.95 1.28 C38.95 -1.56, 48.35 -0.65, 55.85 1.64 C63.36 3.92, 71.88 8.85, 76.97 14.99 C82.07 21.13, 85.39 30.55, 86.41 38.49 C87.44 46.44, 86.23 55.73, 83.1 62.64 C79.97 69.54, 74.44 75.98, 67.64 79.91 C60.84 83.83, 50.2 86.16, 42.3 86.18 C34.4 86.21, 26.88 84.01, 20.26 80.04 C13.64 76.08, 5.68 69.2, 2.58 62.39 C-0.52 55.58, 0.43 47, 1.65 39.2 C2.87 31.39, 4.96 21.65, 9.91 15.56 C14.85 9.48, 27.71 4.69, 31.31 2.68 C34.91 0.66, 31.62 2.76, 31.52 3.45" stroke="#000" stroke-width="1" fill="none"></path></g><g stroke-linecap="round"><g transform="translate(935.6221405480428 680.256363566426) rotate(0 68.17581622541775 -8.330020809737903)" fill-rule="evenodd"><path d="M-0.64 1.16 L7.15 6.94 L11.74 13.86 L43.91 17.62 L92.59 18.78 L113.96 14.99 L124.96 14.2 L134.05 8.94 L136.94 4.95 L136.53 -0.18 L127.01 -5.51 L85.06 -27.35 L81.51 -32.41 L78.85 -35.08 L0.21 -0.8" stroke="none" stroke-width="0" fill="#28a7ea" fill-rule="evenodd"></path><path d="M-0.75 -0.1 C0.12 0.59, 3.11 3.28, 4.86 5.03 C6.62 6.78, 6.18 8.68, 9.8 10.41 C13.41 12.13, 9.18 14.51, 26.53 15.38 C43.89 16.25, 95.66 18.26, 113.93 15.62 C132.2 12.98, 140.87 6.93, 136.17 -0.43 C131.46 -7.8, 96.22 -23.56, 85.7 -28.56 C75.19 -33.57, 87.29 -35.07, 73.07 -30.46 C58.85 -25.84, 12.45 -6.01, 0.39 -0.89 M1.06 -1.2 C1.88 -0.37, 3.04 4.54, 4.39 6.63 C5.74 8.72, 5.41 9.78, 9.18 11.36 C12.95 12.95, 9.69 15.43, 26.99 16.16 C44.28 16.89, 95.04 18.67, 112.96 15.72 C130.89 12.78, 139.48 6.06, 134.53 -1.54 C129.58 -9.13, 93.71 -25, 83.26 -29.85 C72.81 -34.7, 85.87 -35.78, 71.81 -30.65 C57.76 -25.52, 11.19 -4.18, -1.08 0.92" stroke="#000" stroke-width="1" fill="none"></path></g></g><mask></mask><g stroke-linecap="round"><g transform="translate(937.3650352256354 682.1577032147086) rotate(0 34.75951801574752 -29.730956803892354)" fill-rule="evenodd"><path d="M1.21 -1.07 L-6.55 -9.57 L-7.18 -29.73 L-2.22 -43.15 L11.44 -55.04 L26.53 -57.28 L37.6 -58.72 L64.85 -43.62 L75.8 -35.72 L76.91 -30.39 L76.19 -27.19 L64.14 -21.66 L0.24 -2.79" stroke="none" stroke-width="0" fill="#0178d4" fill-rule="evenodd"></path><path d="M0.9 0.12 C0.15 -1.56, -4.06 -4.97, -5.26 -10.19 C-6.45 -15.41, -7.19 -25.39, -6.26 -31.2 C-5.33 -37.01, -2.66 -41.27, 0.33 -45.07 C3.31 -48.86, 7.12 -51.85, 11.63 -53.99 C16.14 -56.12, 22.54 -57.68, 27.4 -57.88 C32.25 -58.07, 32.63 -59.92, 40.75 -55.17 C48.87 -50.43, 82.48 -38.47, 76.13 -29.41 C69.77 -20.35, 15.06 -5.67, 2.62 -0.84 M-0.08 -0.86 C-0.9 -2.39, -4.93 -4.12, -6.05 -9.01 C-7.18 -13.9, -8.01 -24.34, -6.82 -30.21 C-5.64 -36.08, -1.86 -40.34, 1.08 -44.25 C4.01 -48.16, 6.66 -51.23, 10.77 -53.66 C14.88 -56.1, 20.66 -58.4, 25.72 -58.86 C30.79 -59.31, 32.89 -61.14, 41.16 -56.37 C49.42 -51.6, 81.94 -39.27, 75.31 -30.22 C68.67 -21.17, 13.54 -7.04, 1.33 -2.08" stroke="#000" stroke-width="1" fill="none"></path></g></g><mask></mask><g stroke-linecap="round"><g transform="translate(1013.735511098304 648.4089244577001) rotate(0 29.723325072786338 10.498676260010825)" fill-rule="evenodd"><path d="M-1 -0.06 L14.69 -6.28 L30.9 -10.19 L41.13 -11.51 L47.29 -6.1 L54.99 -1.49 L59.15 7.05 L61.78 17.2 L58.66 32.78 L51.94 33.18 L43.97 28.76 L9.43 14.17 L5.98 10.92 L-3.03 1.46" stroke="none" stroke-width="0" fill="#1590de" fill-rule="evenodd"></path><path d="M0.29 -0.68 C2.74 -2, 10.08 -5.85, 15.6 -7.75 C21.13 -9.65, 28 -12.25, 33.44 -12.11 C38.88 -11.97, 43.9 -10.16, 48.23 -6.93 C52.56 -3.71, 57.56 1.71, 59.4 7.24 C61.25 12.78, 60.54 22.31, 59.29 26.27 C58.03 30.22, 59.8 32.65, 51.88 30.96 C43.97 29.27, 20.71 20.97, 11.81 16.11 C2.92 11.25, 0.54 4.41, -1.5 1.81 M-1.02 1.57 C1.23 0.4, 9.16 -4.43, 14.86 -6.54 C20.56 -8.65, 28.08 -11.18, 33.18 -11.08 C38.27 -10.97, 41.21 -9.02, 45.43 -5.89 C49.65 -2.76, 56 2.49, 58.51 7.7 C61.01 12.91, 61.43 21.19, 60.47 25.37 C59.5 29.56, 60.95 34.38, 52.73 32.81 C44.52 31.23, 19.91 21.25, 11.17 15.91 C2.43 10.58, 2.63 3.5, 0.29 0.79" stroke="#000" stroke-width="1" fill="none"></path></g></g><mask></mask><g stroke-linecap="round" transform="translate(665.5837449947549 918.6897505460784) rotate(355.39381576540626 18.18973446673931 12.889811442775226)"><path d="M5.28 0.23 L30.65 1.49 L34.01 2.45 L36.3 7.98 L36.52 19.77 L36.45 24.62 L31.26 26.76 L5.85 24.11 L-0.06 24.38 L-0.8 17.41 L0.75 5.28 L5.54 -0.25 L6.81 0.64" stroke="none" stroke-width="0" fill="#21a366"></path><path d="M6.44 0 M6.44 0 C13.02 0.93, 24.16 0.6, 29.93 0 M6.44 0 C12.46 -0.58, 19.87 0.33, 29.93 0 M29.93 0 C35.62 -1.68, 35.36 1.75, 36.38 6.44 M29.93 0 C33.9 -1.28, 37.65 0.75, 36.38 6.44 M36.38 6.44 C35.78 10.63, 36.5 13.11, 36.38 19.33 M36.38 6.44 C36.48 9.6, 36.82 11.87, 36.38 19.33 M36.38 19.33 C34.73 24.95, 35.61 27.52, 29.93 25.78 M36.38 19.33 C36.6 22.31, 33.59 24.96, 29.93 25.78 M29.93 25.78 C24.94 27.14, 19.12 27.09, 6.44 25.78 M29.93 25.78 C20.94 24.85, 12.56 26.51, 6.44 25.78 M6.44 25.78 C1.81 26.4, 1.83 23.42, 0 19.33 M6.44 25.78 C1.07 25.11, -0.92 22.63, 0 19.33 M0 19.33 C-0.28 15.13, 0.8 11.7, 0 6.44 M0 19.33 C0.48 15.25, 0.28 11.37, 0 6.44 M0 6.44 C-1.27 1.01, 2.19 -1.99, 6.44 0 M0 6.44 C1.15 0.77, 0.66 0.88, 6.44 0" stroke="#000" stroke-width="1" fill="none"></path></g><g stroke-linecap="round" transform="translate(667.7052222125826 942.9615298717995) rotate(355.39381576540626 17.986344356090285 12.889811442775226)"><path d="M-0.8 -0.87 L35.53 0.52 L35.49 25.39 L-0.96 27.07" stroke="none" stroke-width="0" fill="#107c41"></path><path d="M0.84 -0.08 C13.61 0.28, 24.59 1.82, 36.42 1.33 M-0.84 0.1 C12.15 -0.66, 25.27 1.13, 36.93 -0.33 M36.56 1.02 C34.28 9.25, 37.08 17.12, 35.28 24.53 M36.93 0.18 C36.61 5.2, 35.41 11.89, 35.83 25.23 M36.22 25.93 C22.23 26.42, 10.57 24.46, -1.71 26.77 M36.56 25.62 C24.01 26.66, 14.38 26.87, 0.09 25.21 M-1.14 26.73 C1.08 20.01, 1.25 12.94, 1.32 -0.44 M-0.18 26.7 C-0.06 20.47, 1.02 14.44, -0.47 -0.29" stroke="#000" stroke-width="1" fill="none"></path></g><g stroke-linecap="round" transform="translate(672.306019844732 991.2520416789698) rotate(355.39381576540626 36.698234535833535 12.889811442775226)"><path d="M5.68 0.84 L69.69 1.94 L73.13 4.06 L74.68 22.6 L73.12 25.14 L66.35 24.11 L1.95 25.59 L-0.4 20.23 L0.35 8.1 L3.52 0.96 L6.81 0.64" stroke="none" stroke-width="0" fill="#185c37"></path><path d="M6.44 0 M6.44 0 C26.17 0.74, 50.46 0.41, 66.95 0 M6.44 0 C22.29 -0.34, 39.52 0.57, 66.95 0 M66.95 0 C72.63 -1.68, 72.38 1.75, 73.4 6.44 M66.95 0 C70.92 -1.28, 74.67 0.75, 73.4 6.44 M73.4 6.44 C72.79 10.63, 73.52 13.11, 73.4 19.33 M73.4 6.44 C73.49 9.6, 73.84 11.87, 73.4 19.33 M73.4 19.33 C71.74 24.95, 72.62 27.52, 66.95 25.78 M73.4 19.33 C73.61 22.31, 70.61 24.96, 66.95 25.78 M66.95 25.78 C52.53 27.32, 37.28 27.27, 6.44 25.78 M66.95 25.78 C44.41 24.54, 22.49 26.2, 6.44 25.78 M6.44 25.78 C1.81 26.4, 1.83 23.42, 0 19.33 M6.44 25.78 C1.07 25.11, -0.92 22.63, 0 19.33 M0 19.33 C-0.28 15.13, 0.8 11.7, 0 6.44 M0 19.33 C0.48 15.25, 0.28 11.37, 0 6.44 M0 6.44 C-1.27 1.01, 2.19 -1.99, 6.44 0 M0 6.44 C1.15 0.77, 0.66 0.88, 6.44 0" stroke="#000" stroke-width="1" fill="none"></path></g><g stroke-linecap="round" transform="translate(670.2723153662469 969.7509499592722) rotate(355.39381576540626 18.18973446673931 12.889811442775226)"><path d="M-0.48 -0.39 L35.42 1.29 L35.66 25.51 L1.11 26.65" stroke="none" stroke-width="0" fill="#185c37"></path><path d="M0.44 1.68 C11.22 1.3, 22.52 -0.62, 34.71 -1.68 M0.18 0.83 C12.25 0.02, 22.77 0.67, 36.93 0.29 M37.41 0.72 C35.46 7.8, 34.84 17.68, 34.91 27.7 M35.87 -0.2 C36.41 7.64, 37.11 15.78, 36.29 25.9 M36.54 24.5 C23.47 26.89, 14.19 26.01, 1.22 26.96 M37.07 26.65 C26.14 25.45, 15.43 25.66, -0.45 25.21 M1.16 26.98 C1.19 16.37, -1.77 7.05, -1.48 -0.36 M0.92 25.67 C-0.43 15.38, -0.36 5.12, -0.22 0.26" stroke="#000" stroke-width="1" fill="none"></path></g><g stroke-linecap="round" transform="translate(639.1699046965782 942.5817084861355) rotate(355.39381576540626 29.09934021347044 28.248482312491888)"><path d="M14.26 0.44 L49.07 0.67 L54.01 2.96 L55.61 3.85 L56.52 14.33 L57.18 43.76 L56.56 52.64 L54.59 53.86 L44.44 57.13 L11.92 56.86 L6.54 52.74 L3.04 52.01 L0.72 41.68 L-0.37 6.63 L5.09 0.51 L16.04 0.35" stroke="none" stroke-width="0" fill="#0e733b"></path><path d="M14.12 0 M14.12 0 C24.78 -0.14, 35.13 1.26, 44.07 0 M14.12 0 C21.37 -0.52, 28.79 0.04, 44.07 0 M44.07 0 C52.21 -1.71, 59.19 4.9, 58.2 14.12 M44.07 0 C53.61 1.4, 59.55 4.34, 58.2 14.12 M58.2 14.12 C60.13 20.45, 57.24 25.85, 58.2 42.37 M58.2 14.12 C58.55 22.09, 58.7 29.64, 58.2 42.37 M58.2 42.37 C59.4 53.11, 53.05 54.85, 44.07 56.5 M58.2 42.37 C57.27 50.08, 53.07 58.62, 44.07 56.5 M44.07 56.5 C35.38 55.83, 26.53 55.97, 14.12 56.5 M44.07 56.5 C36.15 56.38, 28.22 57.22, 14.12 56.5 M14.12 56.5 C3.99 56.23, 1.11 52.66, 0 42.37 M14.12 56.5 C6.67 55.11, 1.26 49.73, 0 42.37 M0 42.37 C-1.83 36.69, -1.04 27.71, 0 14.12 M0 42.37 C-0.2 33.2, 0.77 24.05, 0 14.12 M0 14.12 C0.84 4.77, 5.34 0.07, 14.12 0 M0 14.12 C-1.81 2.98, 3.33 1.89, 14.12 0" stroke="#000000" stroke-width="2" fill="none"></path></g><g transform="translate(651.4058698453787 940.7514361746025) rotate(355.39381576540626 15.832046508789062 33.09837234807026)"><text x="15.832046508789062" y="0" font-family="Virgil, Segoe UI Emoji" font-size="52.9573957569125px" fill="#ffffff" text-anchor="middle" style="white-space: pre;" direction="ltr" dominant-baseline="text-before-edge">X</text></g><g stroke-linecap="round" transform="translate(702.7873150761861 916.3578649134477) rotate(355.39381576540626 18.18973446673931 12.889811442775226)"><path d="M7.78 0.98 L29.34 -1.66 L33.09 1.82 L35.58 4.52 L36.73 20.99 L36.68 23.51 L30.3 26.42 L7.55 26.36 L2.63 22.4 L1.05 20.36 L1.13 2.93 L2.38 -0.91 L6.01 -1.47" stroke="none" stroke-width="0" fill="#33c481"></path><path d="M6.44 0 M6.44 0 C14.06 -1.18, 24.64 -0.45, 29.93 0 M6.44 0 C12.1 0.27, 18.01 -0.34, 29.93 0 M29.93 0 C34.9 0.16, 35.1 0.43, 36.38 6.44 M29.93 0 C35.37 0.22, 36.5 3.55, 36.38 6.44 M36.38 6.44 C37.21 11.96, 37.48 15.82, 36.38 19.33 M36.38 6.44 C36.05 9.2, 36.65 13.02, 36.38 19.33 M36.38 19.33 C37.63 24.79, 35.43 27.1, 29.93 25.78 M36.38 19.33 C35.87 21.74, 33.3 24.08, 29.93 25.78 M29.93 25.78 C23.93 27.57, 16.48 24.8, 6.44 25.78 M29.93 25.78 C23.35 25.94, 16.96 25.48, 6.44 25.78 M6.44 25.78 C1.19 27.07, -0.72 23.36, 0 19.33 M6.44 25.78 C3.43 26.78, 1.96 22.24, 0 19.33 M0 19.33 C-0.62 14.79, -1.17 10.83, 0 6.44 M0 19.33 C0.05 16.32, -0.06 13.39, 0 6.44 M0 6.44 C1.5 3.74, 2.98 0.07, 6.44 0 M0 6.44 C0.72 2.23, 0.33 -1.73, 6.44 0" stroke="#000" stroke-width="1" fill="none"></path></g><g stroke-linecap="round" transform="translate(704.9087922940134 940.6296442391681) rotate(355.39381576540626 17.986344356090285 12.889811442775226)"><path d="M1.71 -1.21 L37.07 -1.79 L34.7 24.64 L0.04 23.79" stroke="none" stroke-width="0" fill="#21a366"></path><path d="M0.21 -0.8 C7.79 0.65, 21.09 2.21, 35.32 0.36 M0.51 -0.89 C12.46 0.41, 24.23 -0.45, 35.35 -0.66 M36.33 1.38 C34.1 6.16, 35.38 14.07, 34.86 26.89 M36.05 -0.48 C36.29 6.25, 35.31 11.48, 36.47 25.88 M35.65 24.13 C26.31 27.37, 15.75 26.18, -1.15 25.22 M36.45 26.27 C27.09 26.15, 17.56 26.23, -0.22 24.96 M1.84 25.44 C0.81 20.92, -0.02 11.46, -0.58 -0.8 M-0.24 25.58 C-0.42 19.81, -0.3 12.42, 0.56 0.44" stroke="#000" stroke-width="1" fill="none"></path></g><g stroke-linecap="round" transform="translate(707.4758854476772 967.4190643266418) rotate(355.39381576540626 18.18973446673931 12.889811442775226)"><path d="M1.1 -1.79 L35.11 -1.14 L36.42 23.79 L1 24.58" stroke="none" stroke-width="0" fill="#107c41"></path><path d="M-1.92 0.35 C9.52 2.06, 15.08 0.51, 37.02 1.1 M0.53 0.51 C12.34 -0.02, 23.33 -0.33, 36.16 -0.74 M34.7 -1.02 C36.03 9.92, 35.32 21.52, 35.16 25.59 M36.72 0.08 C35.76 7.2, 36.89 16.2, 36.43 26.39 M37.7 27.16 C25.07 25.67, 9.13 24.92, -0.71 24.87 M37 26.36 C28.14 26.62, 18.49 25.14, -0.4 25.04 M0.62 27.61 C-0.45 17.58, -0.82 10.44, -0.87 -0.44 M-0.48 26.42 C-0.3 17.24, 0.62 9.41, 0.85 -0.6" stroke="#000" stroke-width="1" fill="none"></path></g><g stroke-linecap="round" transform="translate(850.4052875173948 903.9984624615788) rotate(355.39381576540626 33.519122032968426 10.191624942456542)"><path d="M6.2 -1.21 L63.99 0.57 L66.87 1.91 L67.39 17.68 L60.66 18.67 L3.85 20.26 L0.42 18.74 L1.18 4.78 L-0.38 2.6 L6.47 1.74" stroke="none" stroke-width="0" fill="#41a5ee"></path><path d="M5.1 0 M5.1 0 C21.97 -0.75, 39.14 1.11, 61.94 0 M5.1 0 C25.56 0.33, 44.61 -1.15, 61.94 0 M61.94 0 C64.53 -1.48, 66.68 3.54, 67.04 5.1 M61.94 0 C64.95 0.71, 69.14 1.45, 67.04 5.1 M67.04 5.1 C66.57 7.45, 67.27 10.01, 67.04 15.29 M67.04 5.1 C66.81 7.89, 67.27 11.04, 67.04 15.29 M67.04 15.29 C68.74 17.48, 66.44 18.59, 61.94 20.38 M67.04 15.29 C65.58 17.38, 65.39 18.09, 61.94 20.38 M61.94 20.38 C42.81 19.91, 22.37 19.58, 5.1 20.38 M61.94 20.38 C43.12 20.87, 23.78 20.87, 5.1 20.38 M5.1 20.38 C0.12 18.88, -1.2 20.33, 0 15.29 M5.1 20.38 C1.66 20.02, -1.99 17.63, 0 15.29 M0 15.29 C0.92 12.86, -0.2 11.23, 0 5.1 M0 15.29 C0 13.48, 0.23 10.92, 0 5.1 M0 5.1 C-0.82 1.67, 0.34 -1.63, 5.1 0 M0 5.1 C-0.02 3.38, 2.34 -0.14, 5.1 0" stroke="#000" stroke-width="1" fill="none"></path></g><g stroke-linecap="round" transform="translate(852.4027540336047 923.1507577775706) rotate(355.39381576540626 33.519122032968426 10.191624942456542)"><path d="M0.06 -0.28 L68.71 -1.53 L65.53 19.09 L-0.3 22.25" stroke="none" stroke-width="0" fill="#2b7cd3"></path><path d="M-0.96 0.67 C19.65 -1.33, 37.27 0.94, 67.23 0.11 M-0.83 0.66 C24.89 0.98, 48.49 -0.47, 66.76 -0.36 M68.03 1.25 C68.08 6.39, 68.24 9.94, 65.4 19.57 M66.87 0.31 C67.92 4.5, 66.53 8.92, 66.64 19.95 M66.65 19.42 C49.69 19.5, 29.5 21.33, 0.87 22.09 M66.4 19.82 C50.99 18.79, 35.41 19.18, -0.65 20.77 M0.77 21.89 C1.57 15.21, 0.04 8.99, 0.07 -1.58 M-0.02 20.23 C-0.74 15.34, -0.47 11.73, 0 0.96" stroke="#000" stroke-width="1" fill="none"></path></g><g stroke-linecap="round" transform="translate(855.1523198188434 962.9189700154225) rotate(355.39381576540626 33.519122032968426 10.191624942456542)"><path d="M5.25 -0.96 L64.85 0.48 L65.44 1.15 L67.71 17.71 L62.05 21.6 L4.04 19.75 L-1.33 18.84 L1.38 6.84 L1.46 0.13 L4.54 -0.71" stroke="none" stroke-width="0" fill="#103f91"></path><path d="M5.1 0 M5.1 0 C20.57 0.98, 35.22 0.93, 61.94 0 M5.1 0 C25.49 -0.27, 46.52 1.39, 61.94 0 M61.94 0 C65 0.62, 68.87 1.49, 67.04 5.1 M61.94 0 C64.26 -0.67, 66.12 0.7, 67.04 5.1 M67.04 5.1 C66.87 7.44, 67.72 10.39, 67.04 15.29 M67.04 5.1 C67.53 7.71, 67.37 10.48, 67.04 15.29 M67.04 15.29 C65.77 17.55, 65.38 18.39, 61.94 20.38 M67.04 15.29 C68.19 17.31, 63.85 21.27, 61.94 20.38 M61.94 20.38 C45.95 21.76, 30.01 21.1, 5.1 20.38 M61.94 20.38 C43.91 19.65, 26.86 21.23, 5.1 20.38 M5.1 20.38 C1.66 20.07, -1.73 17.76, 0 15.29 M5.1 20.38 C0.34 21.57, 0 20.89, 0 15.29 M0 15.29 C-0.76 11.43, -0.64 8.95, 0 5.1 M0 15.29 C-0.24 11.27, -0.38 6.86, 0 5.1 M0 5.1 C-0.02 3.16, 2.26 -0.12, 5.1 0 M0 5.1 C-1.55 3.76, 1.72 -0.74, 5.1 0" stroke="#000" stroke-width="1" fill="none"></path></g><g stroke-linecap="round" transform="translate(854.1124131766551 944.3711704597977) rotate(355.39381576540626 33.519122032968426 10.191624942456542)"><path d="M-1.51 -1.29 L66.73 1.87 L67.64 21.13 L-0.82 20.36" stroke="none" stroke-width="0" fill="#185abd"></path><path d="M-1.71 0.99 C22.56 0.54, 45.96 1.61, 66.72 -1.65 M0.09 -0.57 C24.26 -0.94, 48.63 -1.16, 67.51 0.49 M68.36 -0.44 C65.51 6.58, 65.67 14.42, 68.88 20.05 M66.57 -0.29 C66.82 6.31, 67 13.75, 66.8 20.19 M66.77 21.49 C51.02 21.85, 32.04 21.24, -1.79 19.11 M67.54 19.78 C50.09 20.1, 34.38 19.83, -0.22 20.77 M0.07 21.01 C-0.09 11.16, -1.67 3.89, 1.65 -0.04 M-0.59 20.9 C0.18 15.55, 0.21 8.65, 0.84 -0.76" stroke="#000" stroke-width="1" fill="none"></path></g><g stroke-linecap="round" transform="translate(829.6082164283257 924.7466031134327) rotate(355.39381576540626 23.008060501526188 22.335310194464)"><path d="M9.89 -1.71 L35.84 0.19 L43.33 4.01 L47.19 10.85 L44.36 34.82 L44.6 43.62 L35.04 43.52 L10.61 43.96 L1.89 40.74 L0.95 34.49 L1.95 7.44 L7.48 2.02 L10.72 -1.64" stroke="none" stroke-width="0" fill="#185abd"></path><path d="M11.17 0 M11.17 0 C19.16 -0.29, 24.08 1.87, 34.85 0 M11.17 0 C17.62 -0.37, 24.65 0.33, 34.85 0 M34.85 0 C41.81 -0.39, 45.06 5.01, 46.02 11.17 M34.85 0 C41.47 -0.31, 47.29 4.72, 46.02 11.17 M46.02 11.17 C44.09 18.5, 44.75 28.42, 46.02 33.5 M46.02 11.17 C45.48 16.03, 46.08 20.24, 46.02 33.5 M46.02 33.5 C45.59 41.72, 43.8 46.27, 34.85 44.67 M46.02 33.5 C46.98 41.02, 43.02 44.75, 34.85 44.67 M34.85 44.67 C31.26 44.49, 24.06 42.8, 11.17 44.67 M34.85 44.67 C28.84 45.75, 22.85 44.65, 11.17 44.67 M11.17 44.67 C5.4 43.14, -1.51 39.66, 0 33.5 M11.17 44.67 C3.37 46.82, 0.69 41.81, 0 33.5 M0 33.5 C-1.62 27.7, 1.47 22.48, 0 11.17 M0 33.5 C0.16 26.62, -0.62 20.96, 0 11.17 M0 11.17 C-1.6 2.41, 3.14 -1.36, 11.17 0 M0 11.17 C-1.35 5.46, 3.99 2.26, 11.17 0" stroke="#000000" stroke-width="2" fill="none"></path></g><g transform="translate(836.1833254272628 923.2994563475916) rotate(355.39381576540626 15.617507934570312 26.169986944718403)"><text x="15.617507934570312" y="0" font-family="Virgil, Segoe UI Emoji" font-size="41.87197911154945px" fill="#ffffff" text-anchor="middle" style="white-space: pre;" direction="ltr" dominant-baseline="text-before-edge">W</text></g><g stroke-linecap="round" transform="translate(1006.5013890336427 896.5449979054599) rotate(355.39381576540626 40.29842938845695 41.61250860764551)"><path d="M25.15 3.92 C31.52 0.9, 41.11 -0.13, 48.2 1.12 C55.29 2.38, 62.59 6.49, 67.68 11.46 C72.78 16.44, 76.99 23.55, 78.78 30.96 C80.56 38.37, 80.59 48.72, 78.38 55.93 C76.17 63.14, 71.33 69.58, 65.51 74.25 C59.69 78.91, 50.75 83.25, 43.48 83.93 C36.2 84.6, 28.33 81.77, 21.86 78.29 C15.39 74.81, 8.41 69.58, 4.64 63.03 C0.87 56.48, -1.18 46.7, -0.76 39 C-0.33 31.3, 1.8 23.04, 7.17 16.82 C12.53 10.59, 26.11 4.14, 31.44 1.64 C36.78 -0.85, 38.91 1.35, 39.16 1.84 M44.53 1.56 C51.4 1.61, 60.17 3.66, 65.81 7.96 C71.45 12.25, 76.24 20.29, 78.38 27.35 C80.53 34.41, 80.43 43.02, 78.67 50.3 C76.91 57.58, 72.73 65.62, 67.83 71.03 C62.93 76.43, 56.18 81.23, 49.25 82.74 C42.31 84.24, 33.38 83, 26.22 80.06 C19.06 77.12, 10.53 70.99, 6.28 65.09 C2.03 59.19, 0.91 51.87, 0.72 44.64 C0.53 37.4, 1.68 28.19, 5.13 21.68 C8.59 15.17, 15.01 9.24, 21.45 5.58 C27.89 1.91, 40.08 0.36, 43.78 -0.33 C47.48 -1.02, 43.63 0.75, 43.64 1.45" stroke="none" stroke-width="0" fill="#d35232"></path><path d="M51.57 0.91 C58.17 2.15, 65.7 7.76, 70.44 13.73 C75.19 19.71, 78.98 29.16, 80.03 36.76 C81.07 44.36, 79.58 52.7, 76.73 59.34 C73.87 65.98, 69.05 72.66, 62.88 76.59 C56.71 80.52, 47.17 83.02, 39.69 82.94 C32.2 82.85, 24.04 80.09, 17.99 76.1 C11.94 72.12, 6.33 65.82, 3.36 59.02 C0.4 52.23, -0.83 42.7, 0.19 35.35 C1.2 27.99, 4.7 20.53, 9.46 14.89 C14.21 9.25, 20.32 3.1, 28.72 1.51 C37.12 -0.08, 53.59 4, 59.87 5.36 C66.15 6.72, 66.72 9.26, 66.4 9.65 M26.23 2.83 C32.6 -0.11, 42.14 -1.38, 49.52 0.36 C56.89 2.11, 65.37 7.68, 70.48 13.3 C75.58 18.91, 78.9 26.47, 80.16 34.06 C81.42 41.65, 80.68 51.74, 78.05 58.81 C75.41 65.89, 70.42 72.37, 64.35 76.51 C58.28 80.66, 49.08 83.74, 41.63 83.68 C34.18 83.61, 26.08 80.21, 19.66 76.13 C13.23 72.05, 6.09 65.72, 3.07 59.2 C0.04 52.67, 0.53 44.5, 1.48 36.98 C2.43 29.46, 4.52 20.05, 8.78 14.08 C13.04 8.12, 23.7 3.06, 27.03 1.19 C30.36 -0.67, 28.18 2.06, 28.74 2.87" stroke="#000" stroke-width="1" fill="none"></path></g><g stroke-linecap="round"><g transform="translate(1041.086997868752 897.4240359728165) rotate(355.39381576540626 21.49155620823103 23.616417849392974)" fill-rule="evenodd"><path d="M-0.21 -0.94 L-2.43 31.85 L0.45 40.73 L10.51 44.82 L22.17 45.99 L36.09 45.54 L42.22 44.48 L45.07 38.61 L41.09 28.36 L31.5 8.37 L25.55 5.26 L1.95 0.57" stroke="none" stroke-width="0" fill="#ff8f6a" fill-rule="evenodd"></path><path d="M0.69 0.72 C0.95 7.41, -4.7 33.88, 2.1 40.91 C8.91 47.94, 36.45 48.13, 41.5 42.88 C46.55 37.63, 38.48 16.67, 32.4 9.42 C26.33 2.17, 9.73 0.82, 5.05 -0.64 M-0.4 0.05 C-0.29 6.86, -5.81 34.99, 1.57 42.31 C8.95 49.62, 38.78 49.26, 43.88 43.94 C48.98 38.63, 38.8 17.79, 32.18 10.41 C25.56 3.03, 9.15 1.35, 4.16 -0.36" stroke="#000" stroke-width="1" fill="none"></path></g></g><mask></mask><g stroke-linecap="round" transform="translate(997.8678019458816 917.7672131703316) rotate(355.39381576540626 24.971652714443508 24.241487430395523)"><path d="M13.28 1.2 L41.98 -0.25 L43.57 0.9 L46.76 4.37 L51.79 11.78 L50.37 41.03 L48.03 42.81 L44.63 45.98 L36.95 48.04 L9.8 47.81 L4.35 45.82 L2.99 43.03 L-0.27 37.47 L1.63 8.52 L3.53 2.8 L10.33 -1.27" stroke="none" stroke-width="0" fill="#b93818"></path><path d="M12.12 0 M12.12 0 C19.37 -0.94, 23.33 1.03, 37.82 0 M12.12 0 C20.08 0.81, 28.08 0.47, 37.82 0 M37.82 0 C45.97 0.63, 50.02 2.46, 49.94 12.12 M37.82 0 C44.17 -1.38, 51.84 4, 49.94 12.12 M49.94 12.12 C48.55 20.04, 49.74 27.82, 49.94 36.36 M49.94 12.12 C49.15 18.71, 49.26 26.67, 49.94 36.36 M49.94 36.36 C51.81 45.05, 46.65 47.67, 37.82 48.48 M49.94 36.36 C49.91 42.88, 44.03 48.46, 37.82 48.48 M37.82 48.48 C26.88 50.26, 18.65 47.83, 12.12 48.48 M37.82 48.48 C31.43 47.99, 25.68 47.69, 12.12 48.48 M12.12 48.48 C5.55 48.71, 1.97 44.55, 0 36.36 M12.12 48.48 C3.2 48.87, 2 43.05, 0 36.36 M0 36.36 C-1.09 27.88, -0.48 17.77, 0 12.12 M0 36.36 C0.67 30.38, 0.41 23.67, 0 12.12 M0 12.12 C-1.96 2.63, 4.9 0.74, 12.12 0 M0 12.12 C-0.05 4.73, 4.1 1.11, 12.12 0" stroke="#000000" stroke-width="2" fill="none"></path></g><g transform="translate(1006.9365043310686 916.1965615953757) rotate(355.39381576540626 15.017913818359375 28.40342954946948)"><text x="15.017913818359375" y="0" font-family="Virgil, Segoe UI Emoji" font-size="45.4454872791512px" fill="#ffffff" text-anchor="middle" style="white-space: pre;" direction="ltr" dominant-baseline="text-before-edge">P</text></g><g stroke-linecap="round" transform="translate(502.78265011890153 670.4995126313675) rotate(0 43.82036321096666 43.17296872633153)"><path d="M38.21 0.57 C45.82 -0.99, 55.88 0.68, 62.88 3.9 C69.89 7.12, 75.97 13.46, 80.25 19.88 C84.52 26.31, 88.33 34.52, 88.51 42.43 C88.69 50.34, 85.63 60.75, 81.34 67.34 C77.06 73.93, 70.05 78.88, 62.8 81.96 C55.55 85.03, 45.86 86.88, 37.83 85.8 C29.8 84.72, 20.7 80.55, 14.63 75.46 C8.56 70.36, 3.45 62.57, 1.4 55.23 C-0.65 47.88, -0.01 38.85, 2.31 31.38 C4.63 23.91, 9.3 15.7, 15.33 10.39 C21.35 5.08, 34.04 1.02, 38.48 -0.49 C42.92 -2.01, 41.73 0.41, 41.96 1.29 M43.88 0.06 C51.34 -0.39, 61.83 3.57, 68.44 7.67 C75.04 11.77, 80.27 17.85, 83.5 24.68 C86.73 31.51, 89.09 40.88, 87.83 48.64 C86.58 56.39, 81.12 65.32, 75.98 71.2 C70.85 77.07, 64.45 81.56, 57.02 83.89 C49.59 86.21, 39.18 87.46, 31.39 85.13 C23.59 82.8, 15.49 75.83, 10.24 69.9 C4.98 63.96, 1.06 57.22, -0.15 49.49 C-1.37 41.77, -0.35 30.7, 2.96 23.55 C6.27 16.4, 12.63 10.69, 19.71 6.58 C26.8 2.48, 41.29 -0.22, 45.44 -1.08 C49.6 -1.94, 44.84 0.56, 44.63 1.43" stroke="none" stroke-width="0" fill="#056d70"></path><path d="M36.41 1.55 C43.6 -0.37, 52.84 1.09, 59.92 3.81 C67 6.53, 74.36 11.56, 78.88 17.86 C83.4 24.15, 86.76 33.62, 87.04 41.58 C87.32 49.55, 84.57 59.06, 80.55 65.64 C76.52 72.23, 69.72 77.7, 62.9 81.1 C56.07 84.5, 47.32 86.8, 39.59 86.05 C31.86 85.31, 22.66 81.36, 16.5 76.62 C10.34 71.88, 5.04 64.9, 2.65 57.62 C0.26 50.35, 0.26 40.6, 2.14 32.98 C4.02 25.37, 7.31 17.56, 13.94 11.94 C20.57 6.32, 36.4 1.17, 41.91 -0.75 C47.41 -2.66, 46.81 -0.41, 46.97 0.44 M39.48 0.91 C47.13 0.08, 57.42 3.05, 64.54 6.56 C71.65 10.08, 78.13 15.62, 82.17 21.99 C86.22 28.36, 89.51 37.15, 88.81 44.79 C88.11 52.43, 82.89 61.13, 77.96 67.82 C73.03 74.51, 66.32 81.88, 59.21 84.91 C52.1 87.94, 43.07 87.82, 35.28 85.99 C27.48 84.16, 18.32 79.66, 12.45 73.91 C6.58 68.15, 1.69 58.85, 0.05 51.44 C-1.58 44.04, -0.31 36.61, 2.64 29.49 C5.58 22.36, 11.6 13.38, 17.72 8.71 C23.84 4.05, 35.57 2.84, 39.36 1.48 C43.14 0.11, 40.42 -0.13, 40.45 0.52" stroke="#000000" stroke-width="1" fill="none"></path></g><g stroke-linecap="round" transform="translate(559.2415230573579 716.1609755118393) rotate(0 31.87006963457452 33.67329821393412)"><path d="M18.79 2.07 C24.32 -0.72, 33.49 -0.61, 39.85 0.99 C46.21 2.59, 53.04 6.68, 56.94 11.68 C60.84 16.67, 62.74 24.5, 63.26 30.96 C63.77 37.43, 63.1 44.68, 60.03 50.46 C56.96 56.24, 50.65 63.04, 44.86 65.63 C39.07 68.23, 31.46 67.71, 25.3 66.04 C19.14 64.37, 12.19 60.58, 7.89 55.6 C3.59 50.61, 0.14 42.71, -0.48 36.12 C-1.1 29.53, 0.13 21.81, 4.17 16.04 C8.21 10.27, 19.87 4.05, 23.75 1.52 C27.63 -1.02, 27.54 0.43, 27.43 0.81 M39.13 0.81 C45.05 1.74, 52.41 6.48, 56.4 11.42 C60.4 16.35, 62.53 23.78, 63.11 30.41 C63.69 37.04, 63 45.7, 59.85 51.21 C56.71 56.73, 49.94 61.12, 44.26 63.48 C38.58 65.84, 31.91 66.71, 25.78 65.37 C19.64 64.03, 11.5 60.29, 7.46 55.42 C3.41 50.54, 1.96 42.48, 1.52 36.14 C1.07 29.79, 1.88 23.09, 4.79 17.34 C7.69 11.6, 13.4 4.32, 18.96 1.68 C24.52 -0.97, 35.09 1.72, 38.15 1.47 C41.21 1.23, 37.49 -0.21, 37.32 0.22" stroke="none" stroke-width="0" fill="#1b9ba2"></path><path d="M40 1.84 C45.61 2.87, 52.2 7.16, 56.06 12.27 C59.91 17.37, 62.94 25.68, 63.15 32.47 C63.36 39.25, 60.81 47.6, 57.32 52.96 C53.83 58.33, 47.85 62.48, 42.22 64.65 C36.58 66.82, 29.4 67.74, 23.52 66 C17.63 64.27, 10.76 59.29, 6.91 54.23 C3.05 49.17, 0.52 42.14, 0.41 35.65 C0.29 29.16, 2.79 20.85, 6.22 15.3 C9.64 9.76, 14.72 4.65, 20.96 2.36 C27.19 0.07, 39.54 1.34, 43.61 1.56 C47.68 1.79, 45.45 3.07, 45.39 3.72 M28.48 0.88 C34.57 0.29, 43.03 3.11, 48.52 6.39 C54 9.67, 58.76 14.9, 61.36 20.57 C63.96 26.23, 65.77 34.09, 64.12 40.38 C62.46 46.67, 56.43 53.59, 51.44 58.3 C46.45 63.01, 40.11 67.87, 34.15 68.64 C28.19 69.42, 21.07 66.64, 15.68 62.95 C10.29 59.27, 4.45 52.94, 1.82 46.55 C-0.82 40.16, -1.69 30.83, -0.14 24.6 C1.42 18.37, 6.17 13.27, 11.15 9.17 C16.14 5.08, 26.9 1.19, 29.78 0.01 C32.65 -1.16, 28.42 1.62, 28.4 2.12" stroke="#000000" stroke-width="1" fill="none"></path></g><g stroke-linecap="round" transform="translate(522.7594344576455 752.0487447678959) rotate(0 30.405957535761445 31.470843122334827)"><path d="M18.34 2.01 C23.72 -0.73, 32.67 -1.2, 39.1 0.94 C45.54 3.09, 53.2 9.07, 56.94 14.89 C60.67 20.71, 62.59 29.2, 61.5 35.88 C60.41 42.57, 55.26 50.61, 50.4 55.01 C45.54 59.42, 38.71 61.95, 32.36 62.32 C26 62.68, 17.46 61.34, 12.29 57.22 C7.12 53.11, 2.76 44.38, 1.32 37.6 C-0.12 30.83, 0.3 22.73, 3.66 16.59 C7.01 10.45, 17.91 3.4, 21.45 0.78 C24.99 -1.85, 24.56 0.23, 24.9 0.84 M33.97 1.01 C40.3 1.83, 49.27 5.72, 53.82 10.69 C58.37 15.65, 61.08 24.05, 61.25 30.82 C61.42 37.59, 59.07 46.03, 54.84 51.29 C50.61 56.55, 42.29 61.01, 35.86 62.39 C29.43 63.77, 21.96 63.02, 16.26 59.59 C10.56 56.17, 3.99 48.41, 1.67 41.84 C-0.65 35.27, 0.27 26.48, 2.33 20.16 C4.39 13.84, 8.35 7.37, 14.03 3.93 C19.7 0.49, 32.84 -0.11, 36.39 -0.49 C39.95 -0.87, 35.68 1.2, 35.36 1.67" stroke="none" stroke-width="0" fill="#37c7d2"></path><path d="M42.09 2.19 C47.89 4.38, 54.48 11.64, 57.27 17.92 C60.06 24.19, 60.48 33.4, 58.85 39.82 C57.22 46.24, 52.56 52.6, 47.49 56.43 C42.42 60.26, 34.81 63.25, 28.43 62.8 C22.06 62.35, 13.89 58.31, 9.23 53.72 C4.58 49.14, 1.04 41.87, 0.53 35.27 C0.01 28.66, 2.5 19.72, 6.13 14.09 C9.76 8.45, 15.15 2.87, 22.28 1.47 C29.42 0.07, 43.87 4.07, 48.93 5.7 C53.99 7.33, 52.81 10.69, 52.63 11.24 M27.13 0.87 C33.48 0.32, 42.6 3.53, 48.06 7.28 C53.52 11.03, 58.05 17.27, 59.89 23.37 C61.73 29.47, 62.11 37.91, 59.11 43.87 C56.11 49.83, 48.06 55.91, 41.89 59.14 C35.71 62.36, 28.07 64.74, 22.06 63.2 C16.05 61.65, 9.56 55.66, 5.81 49.87 C2.05 44.07, -0.85 35.45, -0.47 28.44 C-0.09 21.43, 3.33 12.35, 8.07 7.81 C12.82 3.27, 24.6 2.39, 28 1.2 C31.4 0, 28.6 0.07, 28.48 0.63" stroke="#000000" stroke-width="1" fill="none"></path></g><g stroke-linecap="round" transform="translate(476.2511153167934 703.2664462055327) rotate(0 39.641206829977136 38.7453603479438)"><path d="M20.48 0.87 L66.16 -0.9 L72.81 0.93 L75.29 6.43 L79.32 17.38 L79.98 61.46 L75.26 70.69 L71.61 75.01 L59.48 78.26 L16.34 78.78 L8.4 74.83 L3.35 70 L-1.58 56.62 L0.01 12.54 L7.53 2.41 L17.64 -0.92" stroke="none" stroke-width="0" fill="#03797c"></path><path d="M19.37 0 M19.37 0 C31.06 0.06, 38.63 1.67, 59.91 0 M19.37 0 C28.29 1.19, 37.81 0.64, 59.91 0 M59.91 0 C72.01 -0.03, 77.93 4.83, 79.28 19.37 M59.91 0 C72.81 1.68, 79.92 6.32, 79.28 19.37 M79.28 19.37 C78.99 26.84, 80.81 35.79, 79.28 58.12 M79.28 19.37 C78.58 29.21, 79.28 38.52, 79.28 58.12 M79.28 58.12 C79.39 70.3, 73.16 79.23, 59.91 77.49 M79.28 58.12 C77.89 72.38, 74.99 78.99, 59.91 77.49 M59.91 77.49 C48.29 76.58, 38.25 76.96, 19.37 77.49 M59.91 77.49 C45.19 76.63, 30.25 78.05, 19.37 77.49 M19.37 77.49 C7.2 77.45, 0.6 71.08, 0 58.12 M19.37 77.49 C7.56 77.68, -0.73 71.12, 0 58.12 M0 58.12 C-1.52 46.21, -1.73 31.59, 0 19.37 M0 58.12 C-0.07 48.6, -0.43 37.4, 0 19.37 M0 19.37 C-0.7 7.38, 4.82 -1.62, 19.37 0 M0 19.37 C-1.32 6.47, 8.13 -1.66, 19.37 0" stroke="#000000" stroke-width="1" fill="none"></path></g><g transform="translate(495.6996425319285 703.4456155019388) rotate(0 20.416641235351562 41.97819765267309)"><text x="20.416641235351562" y="0" font-family="Virgil, Segoe UI Emoji" font-size="67.16511624427673px" fill="#ffffff" text-anchor="middle" style="white-space: pre;" direction="ltr" dominant-baseline="text-before-edge">S</text></g><g stroke-linecap="round"><g transform="translate(709.8666043868434 400.31523816694994) rotate(0 5.777628101982145 24.113240732565487)" fill-rule="evenodd"><path d="M0.6 0.75 L15.04 -0.43 L18.67 -1.28 L21.93 5 L22.31 36.47 L16.21 44.73 L5.3 47.89 L-7.8 48.77 L-10.01 44.34 L-11.7 31.85 L-12.22 4.62 L-8.65 1.75 L0.1 -0.73" stroke="none" stroke-width="0" fill="#4f59ca" fill-rule="evenodd"></path><path d="M-0.95 -0.9 C2.21 -0.69, 15.58 -0.45, 19.3 1.33 C23.03 3.12, 21.15 4.04, 21.38 9.82 C21.62 15.61, 22.44 29.86, 20.71 36.04 C18.99 42.22, 14.65 44.58, 11.03 46.88 C7.41 49.17, 2.47 50.76, -1.03 49.82 C-4.54 48.89, -8.47 49.2, -9.97 41.26 C-11.47 33.32, -11.55 9.2, -10.04 2.19 C-8.53 -4.81, -2.55 -0.6, -0.91 -0.77 M0.76 1.24 C4.27 1.13, 18.33 -1.9, 21.64 -0.27 C24.95 1.36, 20.81 4.85, 20.61 11.04 C20.4 17.23, 21.71 30.76, 20.41 36.85 C19.12 42.95, 16.19 45.5, 12.85 47.59 C9.51 49.68, 4.07 50.68, 0.38 49.39 C-3.32 48.09, -7.49 47.82, -9.31 39.82 C-11.13 31.82, -12.19 7.82, -10.54 1.37 C-8.89 -5.08, -1.23 1.11, 0.6 1.09" stroke="#000" stroke-width="1" fill="none"></path></g></g><mask></mask><g stroke-linecap="round"><g transform="translate(709.1761635552507 399.27957691955964) rotate(0 -28.682185000901654 33.47363349872842)" fill-rule="evenodd"><path d="M-0.82 -0.03 L-44.8 -2.29 L-54.56 4.23 L-56.7 6.07 L-60.15 23.97 L-54.87 42.86 L-52.37 55.87 L-45.79 60.14 L-34.89 64.27 L-25 68.14 L-15.09 65.99 L-2.92 53.45 L0.68 46.96 L-0.17 37.33 L1.88 1.3" stroke="none" stroke-width="0" fill="#7c83ed" fill-rule="evenodd"></path><path d="M-0.72 0.99 C-9.65 1.57, -45.36 -4.42, -54.57 2.57 C-63.77 9.57, -57.54 33.03, -55.93 42.95 C-54.32 52.86, -50.25 57.93, -44.9 62.07 C-39.54 66.21, -29.93 68.31, -23.82 67.78 C-17.71 67.24, -12.44 62.77, -8.25 58.86 C-4.05 54.95, 0.01 53.44, 1.35 44.31 C2.69 35.17, 0.04 11.26, -0.22 4.06 C-0.47 -3.14, -0.28 1.72, -0.18 1.12 M1.11 0.46 C-7.91 1.31, -46.41 -3.24, -55.52 4.01 C-64.64 11.26, -55.33 34.67, -53.58 43.97 C-51.83 53.28, -49.74 56.31, -45.02 59.84 C-40.31 63.36, -31.66 65.46, -25.29 65.11 C-18.92 64.76, -10.84 60.89, -6.82 57.73 C-2.79 54.57, -2.6 55.21, -1.14 46.14 C0.32 37.07, 1.47 10.95, 1.94 3.31 C2.41 -4.33, 1.81 0.84, 1.71 0.32" stroke="#000" stroke-width="1" fill="none"></path></g></g><mask></mask><g stroke-linecap="round" transform="translate(667.4044932438319 363.03143326089116) rotate(0 15.88013912665474 15.362308502959422)"><path d="M18.83 0.74 C22.06 1.02, 26.07 2.78, 28.24 5.3 C30.4 7.81, 31.79 12.55, 31.8 15.85 C31.8 19.14, 30.63 22.57, 28.29 25.1 C25.95 27.62, 21.33 30.48, 17.78 31 C14.23 31.51, 9.88 29.79, 7 28.18 C4.11 26.58, 1.57 24.36, 0.47 21.37 C-0.62 18.38, -0.9 13.48, 0.45 10.24 C1.79 6.99, 5.27 3.53, 8.54 1.9 C11.81 0.26, 17.64 0.57, 20.06 0.41 C22.49 0.26, 23.19 0.78, 23.1 0.98 M16.22 0.56 C19.25 0.52, 23.39 1.2, 26.04 3.42 C28.69 5.64, 31.39 10.42, 32.13 13.87 C32.87 17.32, 32.45 21.67, 30.48 24.14 C28.51 26.6, 23.71 27.73, 20.3 28.65 C16.89 29.58, 13 30.7, 10.02 29.69 C7.04 28.69, 3.81 25.7, 2.41 22.64 C1.01 19.58, 0.8 14.7, 1.59 11.32 C2.39 7.94, 4.57 4.21, 7.17 2.36 C9.78 0.51, 15.88 0.49, 17.23 0.22 C18.58 -0.05, 15.27 0.44, 15.26 0.75" stroke="none" stroke-width="0" fill="#7c83ed"></path><path d="M15.74 0.84 C18.69 0.51, 22.81 0.89, 25.33 2.84 C27.85 4.79, 30 9.13, 30.87 12.55 C31.75 15.96, 32.09 20.54, 30.56 23.35 C29.03 26.16, 25.04 28.43, 21.68 29.39 C18.33 30.35, 13.83 30.18, 10.43 29.12 C7.04 28.06, 2.89 25.72, 1.31 23.03 C-0.26 20.34, 0.26 16.32, 0.97 12.97 C1.69 9.62, 2.59 5.05, 5.62 2.92 C8.64 0.78, 16.69 0.63, 19.1 0.17 C21.51 -0.28, 20.16 0.06, 20.07 0.18 M9.88 1.95 C12.98 1.18, 18.47 1.61, 21.8 2.52 C25.13 3.43, 28.22 4.56, 29.88 7.42 C31.53 10.27, 32.53 16.19, 31.71 19.65 C30.88 23.12, 27.38 26.21, 24.92 28.22 C22.46 30.22, 20.31 31.89, 16.96 31.7 C13.6 31.51, 7.6 29.56, 4.77 27.08 C1.94 24.6, 0.52 20.19, 0 16.81 C-0.52 13.42, -0.08 9.3, 1.65 6.78 C3.39 4.26, 8.81 2.54, 10.41 1.68 C12 0.81, 11.14 1.71, 11.23 1.57" stroke="#000" stroke-width="1" fill="none"></path></g><g stroke-linecap="round" transform="translate(706.0691798130779 374.07848656639055) rotate(0 11.047053305498821 10.701832889702075)"><path d="M12.78 -0.2 C15.02 -0.03, 17.75 2.21, 19.37 3.94 C20.98 5.67, 22.51 7.85, 22.44 10.17 C22.38 12.49, 20.66 16.08, 18.99 17.85 C17.33 19.62, 14.71 20.26, 12.44 20.79 C10.16 21.31, 7.38 21.99, 5.34 21.01 C3.3 20.03, 0.91 17.19, 0.19 14.89 C-0.52 12.59, 0.31 9.49, 1.03 7.21 C1.75 4.93, 2.22 2.47, 4.52 1.22 C6.82 -0.04, 13.08 -0.24, 14.84 -0.32 C16.59 -0.4, 15.2 0.31, 15.06 0.74 M7.07 0.49 C9.18 -0.31, 12.92 0.77, 15.31 1.74 C17.71 2.71, 20.48 4.71, 21.42 6.3 C22.37 7.89, 21.57 9.21, 20.97 11.28 C20.38 13.36, 19.44 17.11, 17.85 18.73 C16.27 20.36, 13.55 21.22, 11.47 21.03 C9.4 20.85, 7.02 19.24, 5.39 17.64 C3.75 16.05, 2.1 13.46, 1.66 11.47 C1.21 9.47, 1.92 7.4, 2.73 5.67 C3.53 3.95, 5.53 1.83, 6.49 1.12 C7.46 0.42, 8.16 1.16, 8.51 1.43" stroke="none" stroke-width="0" fill="#4f59ca"></path><path d="M10.46 -0.76 C12.63 -1.02, 15.56 0.78, 17.63 2.46 C19.71 4.14, 22.34 7.09, 22.89 9.31 C23.43 11.53, 22.27 13.99, 20.9 15.79 C19.53 17.59, 17.08 19.32, 14.65 20.14 C12.21 20.95, 8.38 21.35, 6.29 20.69 C4.2 20.03, 3.15 18.3, 2.13 16.19 C1.1 14.07, -0.34 10.3, 0.14 8 C0.61 5.71, 2.75 3.81, 4.98 2.4 C7.21 1, 11.55 -0.13, 13.52 -0.42 C15.49 -0.71, 16.89 0.42, 16.78 0.68 M7.53 2.09 C9.77 0.95, 12.77 -0.64, 15 0.13 C17.23 0.91, 19.91 4.5, 20.91 6.74 C21.91 8.97, 21.24 11.33, 21 13.53 C20.76 15.73, 21.27 18.6, 19.48 19.94 C17.7 21.28, 12.94 21.9, 10.3 21.56 C7.67 21.23, 5.48 19.56, 3.68 17.94 C1.88 16.32, -0.08 13.81, -0.5 11.85 C-0.92 9.88, -0.2 7.92, 1.17 6.12 C2.54 4.33, 6.74 2.2, 7.72 1.07 C8.7 -0.06, 7.24 -0.86, 7.07 -0.66" stroke="#000" stroke-width="1" fill="none"></path></g><g stroke-linecap="round" transform="translate(625.2689758053434 388.8622614763781) rotate(0 26.876047870859338 26.549373005434973)"><path d="M12.08 1.65 L43.55 -0.11 L46.84 0.95 L50.71 6.22 L53.75 15.19 L53.61 42.65 L53.56 46.39 L47.05 49.94 L40.17 54.96 L10.77 53.64 L4.37 51.21 L0.51 46.29 L-0.02 41.29 L1.39 7.35 L3.83 3.66 L13.29 -0.64" stroke="none" stroke-width="0" fill="#3e45af"></path><path d="M13.27 0 M13.27 0 C18.03 -0.37, 24.05 -0.96, 40.48 0 M13.27 0 C23.55 -0.63, 33.88 0.6, 40.48 0 M40.48 0 C48.12 1.17, 55.63 5.73, 53.75 13.27 M40.48 0 C48.34 0.25, 53.46 3.04, 53.75 13.27 M53.75 13.27 C54.79 20.57, 54.25 26.42, 53.75 39.82 M53.75 13.27 C53.93 18.61, 53.86 24.01, 53.75 39.82 M53.75 39.82 C54.71 48.84, 48.69 53.17, 40.48 53.1 M53.75 39.82 C54.49 49.49, 48.72 51.51, 40.48 53.1 M40.48 53.1 C30.16 54.81, 20.41 53.55, 13.27 53.1 M40.48 53.1 C30.73 53.35, 20.87 52.08, 13.27 53.1 M13.27 53.1 C3.27 53.11, 1.46 47.23, 0 39.82 M13.27 53.1 C4.87 53.96, -0.13 48.36, 0 39.82 M0 39.82 C1.21 29.49, -1.74 21.24, 0 13.27 M0 39.82 C0.84 31.13, 0.92 23.41, 0 13.27 M0 13.27 C1.74 4.71, 3.54 0.58, 13.27 0 M0 13.27 C1.96 5.25, 6 1.59, 13.27 0" stroke="#000000" stroke-width="1" fill="none"></path></g><g transform="translate(637.7711035326206 389.9998924081675) rotate(0 15.364433288574219 23.890832035132064)"><text x="15.364433288574219" y="0" font-family="Virgil, Segoe UI Emoji" font-size="38.22533125621119px" fill="#ffffff" text-anchor="middle" style="white-space: pre;" direction="ltr" dominant-baseline="text-before-edge">T</text></g><g stroke-linecap="round"><g transform="translate(432.0897150482433 469.69820847912126) rotate(0 -38.547449407763 -5.296931241660957)" fill-rule="evenodd"><path d="M0.21 -0.25 L-12.45 3.2 L-21.18 4.54 L-36.76 4.54 L-44.68 0.76 L-55.06 -6.58 L-62.58 -18.84 L-65.01 -25.64 L-61.17 -38.39 L-68.86 -33.43 L-76.44 -18.41 L-76.79 -9.2 L-77.59 3.14 L-73.39 10.98 L-66.44 21.49 L-59.6 24.94 L-43.34 29.08 L-38.39 28.65 L-25.76 25.13 L-17.86 20.09 L0.01 1.46" stroke="none" stroke-width="0" fill="#0f539a" fill-rule="evenodd"></path><path d="M0.45 -0.49 C-1.61 -0.01, -6.02 2.33, -11.26 3.25 C-16.49 4.16, -25.43 5.26, -30.96 4.99 C-36.48 4.71, -39.61 4.68, -44.41 1.58 C-49.2 -1.52, -56.48 -8.98, -59.72 -13.62 C-62.97 -18.25, -63.58 -21.78, -63.89 -26.23 C-64.2 -30.67, -60.86 -39.02, -61.6 -40.27 C-62.34 -41.53, -65.7 -37.23, -68.32 -33.75 C-70.93 -30.27, -75.85 -25.27, -77.3 -19.4 C-78.76 -13.53, -79.13 -5.06, -77.02 1.48 C-74.92 8.02, -69.23 15.52, -64.68 19.81 C-60.13 24.11, -54.29 25.61, -49.73 27.23 C-45.16 28.86, -43.05 30.68, -37.29 29.56 C-31.54 28.44, -21.53 25.25, -15.2 20.51 C-8.87 15.77, -1.96 4.63, 0.7 1.13 M-0.77 -1.79 C-3.09 -1.21, -7.58 3.01, -12.22 4.36 C-16.85 5.71, -23.33 6.55, -28.58 6.3 C-33.82 6.05, -38.26 6.19, -43.7 2.86 C-49.14 -0.46, -57.59 -8.63, -61.23 -13.65 C-64.88 -18.67, -65.58 -23.13, -65.57 -27.26 C-65.56 -31.39, -60.59 -37.22, -61.16 -38.45 C-61.72 -39.67, -66.54 -38.12, -68.97 -34.6 C-71.4 -31.07, -74.44 -23.18, -75.73 -17.31 C-77.01 -11.43, -78.66 -5.71, -76.68 0.66 C-74.71 7.02, -68.24 16.51, -63.88 20.87 C-59.52 25.23, -54.95 25.51, -50.52 26.84 C-46.09 28.17, -43.15 29.99, -37.29 28.84 C-31.43 27.69, -21.8 24.55, -15.35 19.94 C-8.91 15.32, -0.92 4.41, 1.4 1.17" stroke="#000" stroke-width="1" fill="none"></path></g></g><mask></mask><g stroke-linecap="round"><g transform="translate(388.3655543551108 499.9928055307919) rotate(0 -27.49318809530382 -45.096620799350035)" fill-rule="evenodd"><path d="M0.61 -0.49 L-18.2 -2.35 L-27.42 -3.61 L-40.64 -9.71 L-50.92 -18.42 L-58.86 -32.18 L-63.89 -48.16 L-64.25 -66.12 L-61.6 -75.01 L-53.44 -83.88 L-41.78 -86.63 L-29.87 -90.32 L-15.43 -89.37 L-6.85 -85.65 L3.04 -80.49 L5.25 -73.3 L9.07 -59.76 L5.74 -68.32 L1.06 -74.13 L-10.58 -73.21 L-17.85 -68.17 L-25.28 -62.84 L-34.34 -51.74 L-34.4 -38.5 L-32.66 -24.44 L-27.31 -12.59 L-18.48 -3.56 L0.29 -0.88" stroke="none" stroke-width="0" fill="#067fd8" fill-rule="evenodd"></path><path d="M-0.02 -0.81 C-2.96 -0.89, -10.6 0.58, -17.22 -0.95 C-23.83 -2.47, -32.74 -4.74, -39.72 -9.97 C-46.7 -15.21, -55.07 -23.09, -59.1 -32.35 C-63.13 -41.62, -65.03 -56.97, -63.89 -65.58 C-62.74 -74.18, -58.2 -79.62, -52.23 -84 C-46.25 -88.38, -35.71 -91.63, -28.03 -91.84 C-20.34 -92.06, -11.78 -88.47, -6.1 -85.3 C-0.42 -82.13, 3.38 -76.89, 6.05 -72.85 C8.73 -68.81, 9.58 -61.78, 9.97 -61.08 C10.35 -60.38, 10.05 -66.52, 8.36 -68.65 C6.68 -70.77, 2.81 -72.8, -0.13 -73.82 C-3.06 -74.84, -6.17 -75.68, -9.26 -74.75 C-12.35 -73.81, -14.87 -72.04, -18.66 -68.2 C-22.45 -64.37, -29.78 -58.71, -32.01 -51.74 C-34.24 -44.77, -34.44 -34.04, -32.04 -26.39 C-29.64 -18.73, -22.84 -10.18, -17.59 -5.83 C-12.33 -1.48, -3.54 -1.31, -0.5 -0.29 M-1.48 1.37 C-4.1 1.54, -8.59 2.23, -15.02 0.58 C-21.44 -1.06, -32.71 -3.1, -40.03 -8.48 C-47.34 -13.85, -54.76 -22.23, -58.89 -31.68 C-63.02 -41.13, -66.11 -56.82, -64.79 -65.18 C-63.48 -73.55, -57.31 -77.72, -51.02 -81.86 C-44.72 -86.01, -34.87 -89.37, -27.01 -90.03 C-19.16 -90.69, -9.65 -89.01, -3.88 -85.82 C1.9 -82.64, 5.71 -75.01, 7.61 -70.95 C9.52 -66.88, 7.88 -62.01, 7.55 -61.46 C7.22 -60.9, 6.59 -65.52, 5.64 -67.63 C4.7 -69.74, 4.25 -73.36, 1.89 -74.14 C-0.46 -74.91, -5.01 -73.35, -8.49 -72.29 C-11.97 -71.24, -15.2 -71.09, -19 -67.8 C-22.79 -64.52, -29.28 -59.66, -31.27 -52.57 C-33.26 -45.47, -33.56 -33.08, -30.94 -25.21 C-28.32 -17.34, -20.99 -9.54, -15.56 -5.35 C-10.13 -1.16, -0.92 -1.08, 1.62 -0.07" stroke="#000" stroke-width="1" fill="none"></path></g></g><mask></mask><g stroke-linecap="round"><g transform="translate(323.4039441824575 430.03414842177995) rotate(0 59.21747845448476 -8.865133069121612)" fill-rule="evenodd"><path d="M0.17 -0.63 L7.26 -17.47 L17.2 -30.67 L26.73 -39.96 L38.81 -47.5 L52.87 -47.22 L67.43 -47.34 L83.67 -44.51 L92.37 -40.43 L103.99 -34.74 L109.1 -24.5 L116.19 -11.03 L117.65 -1.83 L119.74 7.39 L114.27 17.3 L109.58 24.9 L102.91 26.4 L93.09 29.15 L81.08 30.39 L68.22 26.78 L66.93 23.51 L73.34 13.93 L74.62 0.06 L71.97 -3.93 L66.62 -10.5 L57.91 -18.35 L43.9 -18.38 L31.78 -21.48 L20.16 -16.88 L-1.38 2.57 L-1.75 1.28" stroke="none" stroke-width="0" fill="#35c669" fill-rule="evenodd"></path><path d="M-0.98 -0.01 C0.37 -2.84, 3.23 -10.83, 8.06 -17.78 C12.9 -24.73, 20.25 -36.52, 28.04 -41.72 C35.82 -46.93, 45.73 -48.43, 54.79 -49.02 C63.85 -49.62, 74.22 -47.77, 82.38 -45.27 C90.54 -42.78, 98.27 -39.47, 103.77 -34.06 C109.27 -28.66, 112.99 -19.65, 115.39 -12.84 C117.8 -6.03, 119.25 0.67, 118.18 6.79 C117.11 12.91, 112.7 20.05, 108.97 23.87 C105.24 27.7, 100.51 28.68, 95.81 29.73 C91.11 30.78, 84.22 30.63, 80.76 30.18 C77.31 29.74, 76.95 27.75, 75.06 27.07 C73.17 26.39, 70.34 27.12, 69.41 26.11 C68.48 25.11, 69.22 22.39, 69.49 21.03 C69.76 19.67, 70.23 19.53, 71.02 17.96 C71.82 16.4, 73.77 14.55, 74.23 11.66 C74.7 8.78, 75.11 4.52, 73.84 0.65 C72.56 -3.22, 71.33 -8.04, 66.58 -11.58 C61.83 -15.12, 53.46 -19.63, 45.34 -20.6 C37.22 -21.57, 25.5 -21.53, 17.87 -17.4 C10.25 -13.27, 2.56 1.23, -0.42 4.19 C-3.4 7.15, -0.1 0.96, -0.03 0.36 M0.71 -1.06 C1.98 -4.19, 3.16 -13.1, 7.58 -19.73 C12 -26.35, 19.84 -36.13, 27.23 -40.83 C34.63 -45.53, 42.42 -47.16, 51.94 -47.92 C61.47 -48.67, 76.04 -48.03, 84.37 -45.37 C92.69 -42.7, 96.68 -37.72, 101.89 -31.95 C107.1 -26.17, 112.54 -17.05, 115.62 -10.71 C118.71 -4.37, 121.69 0.53, 120.38 6.08 C119.07 11.62, 112.25 18.69, 107.77 22.56 C103.3 26.43, 98.03 27.86, 93.54 29.31 C89.05 30.76, 84.08 31.78, 80.85 31.27 C77.63 30.76, 76 27.16, 74.2 26.26 C72.39 25.37, 70.84 26.83, 70.01 25.88 C69.18 24.93, 68.96 22, 69.2 20.57 C69.43 19.14, 70.47 18.65, 71.42 17.33 C72.37 16.01, 74.13 15.32, 74.89 12.64 C75.65 9.96, 77.52 5.2, 75.98 1.25 C74.44 -2.7, 70.97 -7.44, 65.66 -11.06 C60.35 -14.69, 52.13 -19.68, 44.15 -20.49 C36.16 -21.31, 25.3 -19.92, 17.74 -15.96 C10.18 -12.01, 1.68 0.71, -1.23 3.24 C-4.15 5.77, 0.04 -0.27, 0.25 -0.8" stroke="#000" stroke-width="1" fill="none"></path></g></g><mask></mask><g stroke-linecap="round" transform="translate(1466.485880484783 11.088381290376105) rotate(0 34.604878649065085 37.488618536487195)"><path d="M-0.17 -1.25 L70.32 -0.33 L69.98 73.14 L-1.75 76.25" stroke="none" stroke-width="0" fill="#fa5252"></path><path d="M-1.18 1.51 C16.45 2.44, 32.55 -0.26, 69.54 1.74 M0.65 -0.43 C16.68 -0.78, 32.54 -1.08, 68.8 -0.24 M68.72 -1.96 C67.98 27.64, 70.13 53.51, 69.81 75.03 M69.25 0.32 C69.63 25.83, 68.58 52.68, 68.41 74.57 M69.77 75.89 C51.23 73.05, 32.88 75.51, -1.63 73.36 M68.49 75.17 C52.8 75.43, 35.51 75.89, 0.76 75.56 M-0.52 74.86 C0.89 46.72, 2.28 17.66, 1.96 -1.61 M0.29 75.83 C0.25 46.63, 0.58 16.29, -0.54 0.96" stroke="#000000" stroke-width="1" fill="none"></path></g><g stroke-linecap="round" transform="translate(1551.653902424698 10) rotate(0 34.604878649065085 37.488618536487195)"><path d="M1.11 -0.33 L69.98 -1.84 L67.46 76.25 L0.84 73.24" stroke="none" stroke-width="0" fill="#40c057"></path><path d="M0.23 1.97 C16.16 -1.25, 32.45 1.21, 68 1.17 M0.11 -0.13 C26.68 -0.13, 54.14 0.06, 69.78 0.24 M67.8 0.86 C69.77 24.74, 69.62 49.61, 70.17 75.14 M69.56 -0.27 C68.55 20.6, 68.44 39.84, 68.78 75.89 M69.05 73.44 C51.69 76.22, 33.94 73.67, -1.15 74.99 M69.58 74.92 C43.27 75.52, 18.35 75.69, 0.7 74.33 M0.41 74.49 C1.99 56.49, 2.15 39.95, 1.74 0.29 M0.36 75.66 C0.47 55.17, -0.76 37.56, -0.09 -0.63" stroke="#000000" stroke-width="1" fill="none"></path></g><g stroke-linecap="round" transform="translate(1468.2174250904318 100.53002871792103) rotate(0 34.604878649065085 37.488618536487195)"><path d="M0.78 -1.84 L67.46 1.28 L70.05 73.24 L0.11 74.06" stroke="none" stroke-width="0" fill="#4c6ef5"></path><path d="M0.1 -0.73 C26.34 1.06, 50.79 0.49, 71.09 1.3 M-0.6 -0.43 C17.37 -0.15, 36.14 0.33, 69.52 -0.25 M69.95 -0.04 C69.28 15.18, 69.64 30.42, 68.58 75.05 M68.52 0.48 C68.68 24.49, 69.05 50.69, 68.64 75.26 M68.51 75.9 C43.67 72.83, 20.24 74.46, 1.46 73.54 M69.08 75.38 C47.85 75.52, 25.68 74.29, -0.77 74.72 M1.79 73.2 C1.8 51.32, 1.59 31.18, -0.88 0.58 M0.69 74.36 C-0.81 47.04, -0.35 16.57, 0.56 -0.16" stroke="#000000" stroke-width="1" fill="none"></path></g><g stroke-linecap="round" transform="translate(1553.3854470303456 99.44164742754492) rotate(0 34.604878649065085 37.488618536487195)"><path d="M-1.75 1.28 L70.05 -1.74 L69.32 74.06 L-1.59 73.99" stroke="none" stroke-width="0" fill="#fab005"></path><path d="M0.33 1.74 C26.36 1.42, 57.03 1.55, 68.35 0.21 M-0.41 -0.24 C20.46 0.54, 40.09 0.05, 68.23 -0.71 M69.81 0.05 C70.45 25.89, 68.85 51.52, 69.85 75.68 M68.41 -0.4 C68.27 21.41, 68.12 41.28, 69.66 74.9 M67.58 73.36 C52.62 75.31, 39.78 73.86, 0.39 75.73 M69.97 75.56 C49.53 74.61, 27.67 75, -0.06 75.18 M1.96 73.36 C1.07 54.62, -1.55 34.26, 1.71 0.72 M-0.54 75.94 C-0.6 46.71, 0.04 19.54, 0.39 -0.92" stroke="#000000" stroke-width="1" fill="none"></path></g><g stroke-linecap="round"><g stroke-opacity="0.7" fill-opacity="0.7" transform="translate(759.4105753383183 458.579783868355) rotate(0 83.66128032048687 71.0446918575783)"><path d="M1.21 -0.27 C17.72 11.44, 69.7 45.48, 97.65 69.4 C125.6 93.31, 157.15 130.57, 168.91 143.21 M-1.58 -2.89 C14.84 8.16, 68.1 41.01, 96.33 65.65 C124.56 90.3, 155.66 131.31, 167.78 144.98" stroke="#1e1e1e" stroke-width="2" fill="none"></path></g><g stroke-opacity="0.7" fill-opacity="0.7" transform="translate(759.4105753383183 458.579783868355) rotate(0 83.66128032048687 71.0446918575783)"><path d="M141.45 132.31 C151.52 135.21, 151.09 137.93, 167.16 141.4 M140.88 128.38 C149.81 133.58, 157.68 139.66, 166.14 145.93" stroke="#1e1e1e" stroke-width="2" fill="none"></path></g><g stroke-opacity="0.7" fill-opacity="0.7" transform="translate(759.4105753383183 458.579783868355) rotate(0 83.66128032048687 71.0446918575783)"><path d="M157.2 119.16 C163.28 125.46, 158.94 131.44, 167.16 141.4 M156.64 115.23 C161.1 124.02, 164.55 133.79, 166.14 145.93" stroke="#1e1e1e" stroke-width="2" fill="none"></path></g></g><mask></mask><g stroke-linecap="round"><g stroke-opacity="0.7" fill-opacity="0.7" transform="translate(638.9386364505494 490.9408953510126) rotate(0 -30.927431283107353 84.16242455368354)"><path d="M-0.36 -0.29 C-6.29 12.27, -23.04 49.19, -32.94 77.78 C-42.83 106.37, -54.97 155.63, -59.74 171.25 M-4 -2.92 C-10.42 11.31, -24.88 52.93, -34.46 81.15 C-44.04 109.38, -56.92 152.22, -61.5 166.41" stroke="#1e1e1e" stroke-width="2" fill="none"></path></g><g stroke-opacity="0.7" fill-opacity="0.7" transform="translate(638.9386364505494 490.9408953510126) rotate(0 -30.927431283107353 84.16242455368354)"><path d="M-63.29 138.32 C-62.48 148.42, -59.45 157.64, -59.34 166.67 M-63.46 134.67 C-61.15 144.83, -62.44 157.11, -62.16 164.58" stroke="#1e1e1e" stroke-width="2" fill="none"></path></g><g stroke-opacity="0.7" fill-opacity="0.7" transform="translate(638.9386364505494 490.9408953510126) rotate(0 -30.927431283107353 84.16242455368354)"><path d="M-43.71 144.45 C-50.74 152.08, -55.44 158.87, -59.34 166.67 M-43.87 140.79 C-47.77 148.97, -55.21 159.34, -62.16 164.58" stroke="#1e1e1e" stroke-width="2" fill="none"></path></g></g><mask></mask><g stroke-linecap="round"><g stroke-opacity="0.7" fill-opacity="0.7" transform="translate(946.7946021852154 706.5008587818797) rotate(2.1463100607495953 -27.646695091839547 90.80852615439244)"><path d="M1.03 0.38 C-6.21 17.8, -33.23 75.6, -42.79 105.54 C-52.35 135.47, -54.7 167.31, -56.32 180.01 M-1.86 -1.89 C-9.27 14.65, -35.34 70.59, -43.53 101.49 C-51.72 132.39, -49.7 170.91, -51 183.5" stroke="#1e1e1e" stroke-width="2" fill="none"></path></g><g stroke-opacity="0.7" fill-opacity="0.7" transform="translate(946.7946021852154 706.5008587818797) rotate(2.1463100607495953 -27.646695091839547 90.80852615439244)"><path d="M-59.68 158.9 C-54.51 160.08, -53.08 174.75, -47.5 180.71 M-59.95 156.8 C-55.81 162.05, -55.61 174.76, -49.49 183.9" stroke="#1e1e1e" stroke-width="2" fill="none"></path></g><g stroke-opacity="0.7" fill-opacity="0.7" transform="translate(946.7946021852154 706.5008587818797) rotate(2.1463100607495953 -27.646695091839547 90.80852615439244)"><path d="M-39.17 159.65 C-40.6 160.74, -45.76 175.17, -47.5 180.71 M-39.44 157.55 C-41.79 162.9, -48.08 175.38, -49.49 183.9" stroke="#1e1e1e" stroke-width="2" fill="none"></path></g></g><mask></mask><g stroke-linecap="round"><g stroke-opacity="0.7" fill-opacity="0.7" transform="translate(1005.2822143212557 714.1244118535719) rotate(2.1463100607495953 20.333160819449404 80.32642842624034)"><path d="M-2.48 -1.23 C3.56 13.5, 28.85 64.17, 36.45 90.88 C44.06 117.58, 42.48 147.3, 43.15 159 M1.36 4.28 C7.09 20.57, 27.91 67.49, 34.69 93.76 C41.48 120.03, 41.12 151.52, 42.07 161.88" stroke="#1e1e1e" stroke-width="2" fill="none"></path></g><g stroke-opacity="0.7" fill-opacity="0.7" transform="translate(1005.2822143212557 714.1244118535719) rotate(2.1463100607495953 20.333160819449404 80.32642842624034)"><path d="M28.64 135.5 C32.52 144.86, 37.47 149.56, 44.4 164.76 M29.52 135.27 C34.47 143.35, 35.33 150.94, 42.11 160.28" stroke="#1e1e1e" stroke-width="2" fill="none"></path></g><g stroke-opacity="0.7" fill-opacity="0.7" transform="translate(1005.2822143212557 714.1244118535719) rotate(2.1463100607495953 20.333160819449404 80.32642842624034)"><path d="M49.13 134.46 C46.73 143.77, 45.38 148.79, 44.4 164.76 M50.02 134.23 C49.04 142.78, 43.98 150.66, 42.11 160.28" stroke="#1e1e1e" stroke-width="2" fill="none"></path></g></g><mask></mask><g stroke-linecap="round"><g stroke-opacity="0.7" fill-opacity="0.7" transform="translate(593.903344635582 829.7812391590223) rotate(0 36.19959150243426 38.26509709927063)"><path d="M-2.59 0.8 C2.91 7.59, 19.22 26.06, 32.15 38.37 C45.08 50.67, 67.75 68.61, 74.99 74.62 M1.2 -1.24 C6.53 6.2, 18.76 28.54, 30.65 41.7 C42.53 54.87, 65 71.88, 72.53 77.77" stroke="#1e1e1e" stroke-width="2" fill="none"></path></g><g stroke-opacity="0.7" fill-opacity="0.7" transform="translate(593.903344635582 829.7812391590223) rotate(0 36.19959150243426 38.26509709927063)"><path d="M46.21 70.79 C51.55 70.05, 59.79 73.25, 72.36 75.81 M46.23 69.91 C53.91 70.3, 58.6 72.18, 70.99 78.08" stroke="#1e1e1e" stroke-width="2" fill="none"></path></g><g stroke-opacity="0.7" fill-opacity="0.7" transform="translate(593.903344635582 829.7812391590223) rotate(0 36.19959150243426 38.26509709927063)"><path d="M58.36 55.23 C60.16 58.45, 65.13 65.84, 72.36 75.81 M58.38 54.35 C62.93 58.8, 64.36 64.86, 70.99 78.08" stroke="#1e1e1e" stroke-width="2" fill="none"></path></g></g><mask></mask><g stroke-linecap="round"><g stroke-opacity="0.7" fill-opacity="0.7" transform="translate(628.2189625170599 796.013126972362) rotate(0 190.21214671411917 30.86881157538687)"><path d="M-2.18 2.79 C27.15 2.18, 112.91 -15.44, 176.12 -3.7 C239.32 8.03, 342.71 60.83, 377.03 73.2 M1.83 1.84 C30.92 0.38, 111.33 -19.19, 174.8 -8.04 C238.26 3.1, 349.17 55.23, 382.61 68.68" stroke="#1e1e1e" stroke-width="2" fill="none"></path></g><g stroke-opacity="0.7" fill-opacity="0.7" transform="translate(628.2189625170599 796.013126972362) rotate(0 190.21214671411917 30.86881157538687)"><path d="M356.64 69.43 C363.55 64.68, 373.6 72.32, 381.45 65.93 M353.77 68.64 C358.89 67.32, 368 67.08, 383.13 67.77" stroke="#1e1e1e" stroke-width="2" fill="none"></path></g><g stroke-opacity="0.7" fill-opacity="0.7" transform="translate(628.2189625170599 796.013126972362) rotate(0 190.21214671411917 30.86881157538687)"><path d="M364.72 50.57 C369.16 51.45, 376.75 64.84, 381.45 65.93 M361.85 49.77 C365.04 53.01, 372.13 57.48, 383.13 67.77" stroke="#1e1e1e" stroke-width="2" fill="none"></path></g></g><mask></mask></svg>